<?xml version="1.0" encoding="UTF-8" standalone="no"?>
<!-- Created with Inkscape (http://www.inkscape.org/) -->

<svg
   width="480"
   height="150"
   viewBox="0 0 127 39.6875"
   version="1.1"
   id="svg1"
   xml:space="preserve"
   inkscape:version="1.4 (86a8ad7, 2024-10-11)"
   sodipodi:docname="logo.svg"
   xmlns:inkscape="http://www.inkscape.org/namespaces/inkscape"
   xmlns:sodipodi="http://sodipodi.sourceforge.net/DTD/sodipodi-0.dtd"
   xmlns:xlink="http://www.w3.org/1999/xlink"
   xmlns="http://www.w3.org/2000/svg"
   xmlns:svg="http://www.w3.org/2000/svg"><sodipodi:namedview
     id="namedview1"
     pagecolor="#ffffff"
     bordercolor="#000000"
     borderopacity="0.25"
     inkscape:showpageshadow="2"
     inkscape:pageopacity="0.0"
     inkscape:pagecheckerboard="0"
     inkscape:deskcolor="#d1d1d1"
     inkscape:document-units="mm"
     showgrid="true"
     inkscape:zoom="0.7"
     inkscape:cx="270"
     inkscape:cy="-6.4285714"
     inkscape:window-width="1366"
     inkscape:window-height="705"
     inkscape:window-x="-8"
     inkscape:window-y="-8"
     inkscape:window-maximized="1"
     inkscape:current-layer="g11"><inkscape:grid
       id="grid1"
       units="mm"
       originx="0"
       originy="0"
       spacingx="0.26458333"
       spacingy="0.26458334"
       empcolor="#0099e5"
       empopacity="0.30196078"
       color="#0099e5"
       opacity="0.14901961"
       empspacing="5"
       enabled="true"
       visible="true" /></sodipodi:namedview><defs
     id="defs1"><linearGradient
       id="linearGradient8"
       inkscape:collect="always"><stop
         style="stop-color:#fcce2b;stop-opacity:1;"
         offset="0"
         id="stop8" /><stop
         style="stop-color:#ffe473;stop-opacity:1;"
         offset="1"
         id="stop9" /></linearGradient><linearGradient
       id="linearGradient6"
       inkscape:collect="always"><stop
         style="stop-color:#4b85b2;stop-opacity:1;"
         offset="0"
         id="stop6" /><stop
         style="stop-color:#3a74a4;stop-opacity:1;"
         offset="1"
         id="stop7" /></linearGradient><linearGradient
       id="linearGradient3"
       inkscape:collect="always"><stop
         style="stop-color:#2d5578;stop-opacity:1;"
         offset="0"
         id="stop3" /><stop
         style="stop-color:#4b85b2;stop-opacity:1;"
         offset="1"
         id="stop4" /></linearGradient><linearGradient
       id="linearGradient1"
       inkscape:collect="always"><stop
         style="stop-color:#fcce2b;stop-opacity:1;"
         offset="0"
         id="stop1" /><stop
         style="stop-color:#ffe474;stop-opacity:1;"
         offset="1"
         id="stop2" /></linearGradient><linearGradient
       inkscape:collect="always"
       xlink:href="#linearGradient1"
       id="linearGradient2"
       x1="6.614583"
       y1="10.583334"
       x2="13.229166"
       y2="3.9687502"
       gradientUnits="userSpaceOnUse" /><linearGradient
       inkscape:collect="always"
       xlink:href="#linearGradient3"
       id="linearGradient4"
       x1="3.96875"
       y1="6.6145835"
       x2="10.583333"
       y2="1.3229167"
       gradientUnits="userSpaceOnUse" /><linearGradient
       inkscape:collect="always"
       xlink:href="#linearGradient6"
       id="linearGradient7"
       x1="47.625"
       y1="5.6918969"
       x2="39.6875"
       y2="20.578741"
       gradientUnits="userSpaceOnUse"
       gradientTransform="rotate(-19.632945,43.499614,10.934807)" /><linearGradient
       inkscape:collect="always"
       xlink:href="#linearGradient8"
       id="linearGradient9"
       x1="42.333332"
       y1="31.750002"
       x2="44.979164"
       y2="25.135418"
       gradientUnits="userSpaceOnUse"
       gradientTransform="translate(-6.0792206,14.023992)" /></defs><g
     inkscape:label="Layer 1"
     inkscape:groupmode="layer"
     id="layer1"><g
       id="g10"
       transform="translate(-31.620277,0.03471925)"><path
         id="path5"
         style="fill:url(#linearGradient7);stroke-width:0.247334;stroke-linejoin:bevel;stroke-miterlimit:2.2;stroke-opacity:0.757862"
         d="m 43.605592,1.2887142 c -1.057258,-0.00881 -2.134187,0.1646355 -3.187919,0.5405355 -4.817059,1.7183986 -7.32891,7.0163265 -5.61051,11.8333863 1.546729,4.335676 6.043251,6.876959 10.555428,5.965527 l 1.365291,3.827674 2.491838,-0.889352 -1.365291,-3.827156 c 4.07027,-2.150201 5.943262,-6.963857 4.39663,-11.2995691 C 50.90856,3.6764324 47.381514,1.3201641 43.605592,1.2887142 Z m -0.53175,1.335319 A 7.9375,7.9375014 70.367055 0 1 51.002557,7.8815934 7.9375,7.9375014 70.367055 0 1 46.193548,18.024644 7.9375,7.9375014 70.367055 0 1 36.050498,13.215635 7.9375,7.9375014 70.367055 0 1 40.859507,3.0725846 7.9375,7.9375014 70.367055 0 1 43.073842,2.6240332 Z" /><ellipse
         style="fill:#e0e0e0;fill-opacity:0.214286;stroke:none;stroke-width:0.2544;stroke-linejoin:bevel;stroke-miterlimit:2.2;stroke-dasharray:none;stroke-opacity:0.757862"
         id="path4"
         cx="37.45182"
         cy="24.560059"
         rx="7.9375014"
         ry="7.9375"
         transform="rotate(-19.632945)" /><rect
         style="fill:url(#linearGradient9);fill-opacity:1;stroke:none;stroke-width:0.5497;stroke-linejoin:bevel;stroke-miterlimit:2.2;stroke-dasharray:none;stroke-opacity:0.757862"
         id="rect6-9"
         width="4.233336"
         height="16.676811"
         x="35.460361"
         y="37.034683"
         transform="rotate(-19.632945)" /><g
         id="g4"
         transform="translate(35.589027,5.2569477)"><path
           id="rect1"
           style="fill:url(#linearGradient4);stroke:none;stroke-width:0.230505;stroke-linejoin:bevel;stroke-miterlimit:2.2;stroke-dasharray:none;stroke-opacity:0.757862"
           d="M 5.2916667,0 V 2.6458333 H 2.6458333 V 5.2916667 7.9375 H 5.2916667 V 5.2916667 H 7.9375 10.583333 V 2.6458333 0 H 7.9375 Z"
           sodipodi:nodetypes="ccccccccccccc" /><path
           id="rect1-6"
           style="fill:url(#linearGradient2);fill-opacity:1;stroke:none;stroke-width:0.230505;stroke-linejoin:bevel;stroke-miterlimit:2.2;stroke-dasharray:none;stroke-opacity:0.757862"
           d="M 10.583333,2.6458333 V 5.2916667 H 7.9375 5.2916667 V 7.9375 10.583333 H 7.9375 10.583333 V 7.9375 h 2.645834 V 5.2916667 2.6458333 Z"
           sodipodi:nodetypes="ccccccccccccc" /></g></g><g
       id="g11"
       transform="matrix(1.0946879,0,0,1.0946879,-0.10220708,-3.0746547)"><path
         style="font-weight:bold;font-size:19.7233px;line-height:1;font-family:'DejaVu Sans';-inkscape-font-specification:'DejaVu Sans Bold';letter-spacing:-0.456377px;fill:#6d6d6d;stroke:#ffffff;stroke-width:0.354797;stroke-linecap:round;stroke-linejoin:bevel;stroke-miterlimit:2.2;stroke-opacity:0.757862;paint-order:fill markers stroke"
         d="m 30.358094,23.930539 v 5.662744 H 26.910369 V 14.704502 h 3.447725 v 1.579405 c 0.475105,-0.629193 1.001574,-1.091458 1.579405,-1.386794 0.577831,-0.301757 1.242337,-0.452635 1.993517,-0.452635 1.329012,0 2.420471,0.529679 3.274376,1.589036 0.853906,1.052937 1.280859,2.41084 1.280859,4.073709 0,1.662869 -0.426953,3.023983 -1.280859,4.08334 -0.853905,1.052937 -1.945364,1.579405 -3.274376,1.579405 -0.75118,0 -1.415686,-0.147668 -1.993517,-0.443004 -0.577831,-0.301757 -1.1043,-0.767232 -1.579405,-1.396425 z m 2.292063,-6.982126 c -0.738339,0 -1.30654,0.272865 -1.704601,0.818594 -0.391641,0.539309 -0.587462,1.319381 -0.587462,2.340216 0,1.020835 0.195821,1.804117 0.587462,2.349846 0.398061,0.539309 0.966262,0.808964 1.704601,0.808964 0.73834,0 1.30012,-0.269655 1.685341,-0.808964 0.391641,-0.539309 0.587462,-1.322591 0.587462,-2.349846 0,-1.027255 -0.195821,-1.810537 -0.587462,-2.349846 -0.385221,-0.539309 -0.947001,-0.808964 -1.685341,-0.808964 z m 6.506488,-2.243911 h 3.447726 l 2.898785,7.319194 2.465413,-7.319194 h 3.447726 l -4.535974,11.807016 c -0.455845,1.200604 -0.988733,2.038459 -1.598666,2.513565 -0.603513,0.481526 -1.402846,0.722289 -2.397999,0.722289 H 40.890138 V 27.4842 h 1.078618 c 0.584251,0 1.007994,-0.0931 1.271229,-0.279285 0.269654,-0.18619 0.478315,-0.520048 0.625983,-1.001574 l 0.09631,-0.298546 z"
         id="text10"
         aria-label="py"
         sodipodi:nodetypes="cccccccscscsccscscscscscccccccsccscccc" /><path
         style="font-weight:bold;font-size:21.3036px;line-height:1;font-family:'DejaVu Sans';-inkscape-font-specification:'DejaVu Sans Bold';letter-spacing:-0.492943px;fill:#6d6d6d;stroke:#ffffff;stroke-width:0.383224;stroke-linecap:round;stroke-linejoin:bevel;stroke-miterlimit:2.2;stroke-opacity:0.757862;paint-order:fill markers stroke"
         d="m 51.785361,12.815902 h 4.025631 l 4.119251,11.463168 4.108849,-11.463168 h 4.025631 L 62.312335,28.34631 h -4.774586 z m 17.305133,3.880001 h 3.72397 V 28.34631 h -3.72397 z m 0,-4.535337 h 3.72397 v 3.037428 h -3.72397 z m 15.911245,4.899412 v 2.829385 c -0.797498,-0.332869 -1.567257,-0.58252 -2.309277,-0.748955 -0.74202,-0.166434 -1.442431,-0.249651 -2.101234,-0.249651 -0.707346,0 -1.234388,0.09015 -1.581127,0.270455 -0.339803,0.173369 -0.509705,0.443825 -0.509705,0.811368 0,0.298195 0.128293,0.527042 0.384879,0.686542 0.263521,0.159499 0.731618,0.27739 1.40429,0.353673 l 0.655336,0.09362 c 1.907061,0.242717 3.189992,0.641466 3.848795,1.196247 0.658803,0.554781 0.988204,1.425095 0.988204,2.61094 0,1.241323 -0.457695,2.174049 -1.373084,2.798178 -0.915389,0.624129 -2.281537,0.936193 -4.098446,0.936193 -0.769759,0 -1.567257,-0.06241 -2.392494,-0.187239 -0.818303,-0.117891 -1.660877,-0.298194 -2.527723,-0.540911 v -2.829385 c 0.74202,0.360608 1.501377,0.631064 2.278071,0.811368 0.783629,0.180304 1.577659,0.270456 2.382092,0.270456 0.728151,0 1.275997,-0.100554 1.643539,-0.301663 0.367543,-0.201108 0.551314,-0.499303 0.551314,-0.894584 0,-0.332869 -0.128293,-0.579054 -0.384879,-0.738553 -0.249651,-0.166435 -0.752422,-0.294728 -1.508312,-0.38488 l -0.655335,-0.08322 c -1.657409,-0.208043 -2.818983,-0.592922 -3.48472,-1.154638 -0.665737,-0.561716 -0.998606,-1.414692 -0.998606,-2.558929 0,-1.234388 0.423021,-2.149777 1.269062,-2.746167 0.846041,-0.59639 2.142843,-0.894585 3.890404,-0.894585 0.686541,0 1.407757,0.05201 2.163647,0.156032 0.755889,0.104022 1.577659,0.266989 2.465309,0.488901 z m 8.629742,2.018017 c -0.825237,0 -1.456301,0.298195 -1.893191,0.894585 -0.429955,0.589455 -0.644933,1.442432 -0.644933,2.558929 0,1.116497 0.214978,1.972941 0.644933,2.56933 0.43689,0.589455 1.067954,0.884183 1.893191,0.884183 0.811367,0 1.432029,-0.294728 1.861984,-0.884183 0.429956,-0.596389 0.644934,-1.452833 0.644934,-2.56933 0,-1.116497 -0.214978,-1.969474 -0.644934,-2.558929 -0.429955,-0.59639 -1.050617,-0.894585 -1.861984,-0.894585 z m 0,-2.66295 c 2.004147,0 3.567937,0.540912 4.691369,1.622735 1.130367,1.081824 1.69555,2.579734 1.69555,4.493729 0,1.913995 -0.565183,3.411905 -1.69555,4.493728 -1.123432,1.081823 -2.687222,1.622735 -4.691369,1.622735 -2.011082,0 -3.585274,-0.540912 -4.722576,-1.622735 -1.130367,-1.081823 -1.69555,-2.579733 -1.69555,-4.493728 0,-1.913995 0.565183,-3.411905 1.69555,-4.493729 1.137302,-1.081823 2.711494,-1.622735 4.722576,-1.622735 z m 17.253119,3.453514 c -0.32593,-0.152565 -0.65187,-0.263522 -0.9778,-0.332869 -0.319,-0.07628 -0.64147,-0.114424 -0.9674,-0.114424 -0.957,0 -1.69555,0.308597 -2.21566,0.925791 -0.51317,0.610259 -0.76976,1.487507 -0.76976,2.631744 v 5.367509 h -3.72396 V 16.695903 h 3.72396 v 1.913996 c 0.4785,-0.762825 1.02635,-1.317606 1.64354,-1.664344 0.62413,-0.353673 1.36962,-0.53051 2.23647,-0.53051 0.12482,0 0.26005,0.0069 0.40568,0.0208 0.14563,0.0069 0.35714,0.02774 0.63453,0.06241 z"
         id="text10-0"
         aria-label="Visor"
         sodipodi:nodetypes="ccccccccccccccccccccsscscccssssccccssscccsssssscscscscscsscscscscsccscsccccccsccc" /></g></g></svg>
